<?xml version="1.0" encoding="UTF-8"?>
<svg id="Capa_2" data-name="Capa 2" xmlns="http://www.w3.org/2000/svg" viewBox="0 0 80.05 80.98">
  <defs>
    <style>
      .cls-1 {
        fill: #80e4da;
      }
    </style>
  </defs>
  <g id="Capa_1-2" data-name="Capa 1">
    <g>
      <path class="cls-1" d="M66.2,66.74c3.82,0,6.35-3.97,4.74-7.44L44.73,3.02c-1.88-4.03-7.61-4.03-9.48,0L16.87,42.63c-1.18,2.54,.68,5.45,3.48,5.45h7.72c1.36,0,2.59-.79,3.16-2.02l6.22-13.39c1-2.15,4.06-2.15,5.06,0l7.79,16.72c.76,1.64-.37,3.53-2.18,3.64l-1.1,.06c-3.94,.22-7.88,.65-11.76,1.42-3.09,.61-6.11,1.37-9.04,2.33-7.26,2.37-14.15,5.82-19.82,11.73-2.27,2.37-4.06,5.15-5.43,8.13l-.82,1.8c-.53,1.15,.32,2.47,1.58,2.47l11.87,.02c.82,0,1.56-.47,1.91-1.21,.03-.07,.28-.47,.31-.5,1.74-2.5,4.01-4.43,6.65-5.94,6.17-3.53,12.97-4.89,19.91-5.73,5.52-.66,11.06-.89,15.97-.89,1.12,0,2.21,.01,3.25,.04h4.59Z"/>
      <path class="cls-1" d="M79.89,78.49l-2.88-6.34-16.13-.02,4.13,8.85,13.3-.02c1.27,0,2.11-1.31,1.59-2.46Z"/>
    </g>
  </g>
</svg>