<?xml version="1.0" encoding="UTF-8"?>
<svg id="Capa_2" data-name="Capa 2" xmlns="http://www.w3.org/2000/svg" viewBox="0 0 333.69 85.02">
  <defs>
    <style>
      .cls-1 {
        fill: #007fff;
      }

      .cls-2 {
        fill: #023460;
      }
    </style>
  </defs>
  <g id="Capa_1-2" data-name="Capa 1">
    <g>
      <g>
        <path class="cls-1" d="M123.17,26.05v37.96h-11.39v-3.57c-2.5,2.88-6.22,4.63-11.31,4.63-9.95,0-18.14-8.73-18.14-20.04s8.2-20.04,18.14-20.04c5.09,0,8.81,1.75,11.31,4.63v-3.57h11.39Zm-11.39,18.98c0-5.69-3.8-9.26-9.03-9.26s-9.03,3.57-9.03,9.26,3.8,9.26,9.03,9.26,9.03-3.57,9.03-9.26Z"/>
        <path class="cls-1" d="M131.96,8.59h11.39v55.42h-11.39V8.59Z"/>
        <path class="cls-1" d="M188.74,26.05l-14.04,37.96h-12.91l-14.04-37.96h12.6l7.89,24.06,7.9-24.06h12.6Z"/>
        <path class="cls-2" d="M189.66,45.03c0-11.31,8.58-20.04,20.12-20.04,7.36,0,13.89,3.87,17.16,9.72l-9.95,5.77c-1.29-2.66-4.02-4.25-7.36-4.25-4.93,0-8.58,3.57-8.58,8.81s3.64,8.81,8.58,8.81c3.34,0,6.15-1.59,7.36-4.25l9.95,5.69c-3.26,5.92-9.72,9.79-17.16,9.79-11.54,0-20.12-8.73-20.12-20.04Z"/>
        <path class="cls-2" d="M229.8,45.03c0-11.31,8.96-20.04,20.12-20.04s20.12,8.73,20.12,20.04-8.96,20.04-20.12,20.04-20.12-8.73-20.12-20.04Zm28.85,0c0-5.39-3.8-8.96-8.73-8.96s-8.73,3.57-8.73,8.96,3.8,8.96,8.73,8.96,8.73-3.57,8.73-8.96Z"/>
        <path class="cls-2" d="M333.69,40.7v23.31h-11.39v-22.32c0-3.8-1.82-6.22-5.47-6.22s-5.92,2.66-5.92,7.14v21.41h-11.39v-22.32c0-3.8-1.82-6.22-5.47-6.22s-5.92,2.66-5.92,7.14v21.41h-11.39V26.05h11.39v3.49c1.75-2.58,5.09-4.55,10.17-4.55,4.48,0,7.82,1.82,9.94,5.01,2.13-3.04,5.62-5.01,11.01-5.01,8.73,0,14.42,6.23,14.42,15.71Z"/>
      </g>
      <g>
        <path class="cls-1" d="M66.2,66.74c3.82,0,6.35-3.97,4.74-7.44L44.73,3.02c-1.88-4.03-7.61-4.03-9.48,0L16.87,42.63c-1.18,2.54,.68,5.45,3.48,5.45h7.72c1.36,0,2.59-.79,3.16-2.02l6.22-13.39c1-2.15,4.06-2.15,5.06,0l7.79,16.72c.76,1.64-.37,3.53-2.18,3.64l-1.1,.06c-3.94,.22-7.88,.65-11.76,1.42-3.09,.61-6.11,1.37-9.04,2.33-7.26,2.37-14.15,5.82-19.82,11.73-2.27,2.37-4.06,5.15-5.43,8.13l-.82,1.8c-.53,1.15,.32,2.47,1.58,2.47l11.87,.02c.82,0,1.56-.47,1.91-1.21,.03-.07,.28-.47,.31-.5,1.74-2.5,4.01-4.43,6.65-5.94,6.17-3.53,12.97-4.89,19.91-5.73,5.52-.66,11.06-.89,15.97-.89,1.12,0,2.21,.01,3.25,.04h4.59Z"/>
        <path class="cls-1" d="M79.89,78.49l-2.88-6.34-16.13-.02,4.13,8.85,13.3-.02c1.27,0,2.11-1.31,1.59-2.46Z"/>
      </g>
      <g>
        <path class="cls-2" d="M192.03,79.35c0-3.24,2.48-5.67,5.82-5.67s5.81,2.41,5.81,5.67-2.49,5.67-5.81,5.67-5.82-2.43-5.82-5.67Zm10.8,0c0-2.83-2.14-4.92-4.98-4.92s-5,2.09-5,4.92,2.14,4.92,5,4.92,4.98-2.09,4.98-4.92Z"/>
        <path class="cls-2" d="M208.44,80.2v-6.44h.81v6.41c0,2.8,1.34,4.11,3.67,4.11s3.66-1.31,3.66-4.11v-6.41h.81v6.44c0,3.19-1.71,4.82-4.49,4.82s-4.47-1.63-4.47-4.82Z"/>
        <path class="cls-2" d="M225.17,74.49h-4.03v-.73h8.87v.73h-4.03v10.45h-.81v-10.45Z"/>
        <path class="cls-2" d="M232.73,83.5l.37-.61c.77,.8,2.19,1.41,3.69,1.41,2.24,0,3.23-.97,3.23-2.19,0-3.35-6.98-1.34-6.98-5.46,0-1.58,1.21-2.97,3.96-2.97,1.23,0,2.51,.38,3.37,1.01l-.3,.65c-.93-.64-2.06-.94-3.07-.94-2.17,0-3.15,1.01-3.15,2.24,0,3.35,6.98,1.37,6.98,5.43,0,1.58-1.26,2.96-4.03,2.96-1.66,0-3.26-.62-4.07-1.52Z"/>
        <path class="cls-2" d="M244.57,79.35c0-3.24,2.48-5.67,5.82-5.67s5.81,2.41,5.81,5.67-2.49,5.67-5.81,5.67-5.82-2.43-5.82-5.67Zm10.8,0c0-2.83-2.14-4.92-4.98-4.92s-5,2.09-5,4.92,2.14,4.92,5,4.92,4.98-2.09,4.98-4.92Z"/>
        <path class="cls-2" d="M260.98,80.2v-6.44h.81v6.41c0,2.8,1.34,4.11,3.67,4.11s3.66-1.31,3.66-4.11v-6.41h.81v6.44c0,3.19-1.71,4.82-4.49,4.82s-4.47-1.63-4.47-4.82Z"/>
        <path class="cls-2" d="M283.56,84.94l-2.67-3.74c-.35,.05-.7,.08-1.09,.08h-3.2v3.66h-.81v-11.18h4.01c2.81,0,4.5,1.41,4.5,3.77,0,1.77-.96,3-2.62,3.5l2.8,3.91h-.93Zm-3.75-4.38c2.4,0,3.67-1.12,3.67-3.04s-1.28-3.04-3.67-3.04h-3.2v6.07h3.2Z"/>
        <path class="cls-2" d="M288.28,79.35c0-3.26,2.48-5.67,5.8-5.67,1.58,0,3,.51,3.98,1.55l-.51,.53c-.96-.94-2.12-1.33-3.43-1.33-2.86,0-5.02,2.11-5.02,4.92s2.16,4.92,5.02,4.92c1.31,0,2.48-.4,3.43-1.34l.51,.53c-.97,1.04-2.4,1.57-3.98,1.57-3.32,0-5.8-2.41-5.8-5.67Z"/>
        <path class="cls-2" d="M302.84,73.76h.81v11.18h-.81v-11.18Z"/>
        <path class="cls-2" d="M318.7,73.76v11.18h-.67l-7.62-9.71v9.71h-.81v-11.18h.69l7.6,9.71v-9.71h.82Z"/>
        <path class="cls-2" d="M332.64,79.4h.78v4.19c-1.01,.96-2.46,1.44-3.99,1.44-3.37,0-5.85-2.41-5.85-5.67s2.48-5.67,5.86-5.67c1.61,0,3.04,.51,4.03,1.53l-.51,.54c-.97-.96-2.14-1.33-3.5-1.33-2.91,0-5.06,2.11-5.06,4.92s2.16,4.92,5.06,4.92c1.18,0,2.27-.29,3.18-1.02v-3.85Z"/>
      </g>
    </g>
  </g>
</svg>