<?xml version="1.0" encoding="UTF-8"?>
<svg id="Capa_2" data-name="Capa 2" xmlns="http://www.w3.org/2000/svg" viewBox="0 0 232.12 58.6">
  <defs>
    <style>
      .cls-1 {
        fill: #80e4da;
      }

      .cls-2 {
        fill: #e8f5ff;
      }
    </style>
  </defs>
  <g id="Capa_1-2" data-name="Capa 1">
    <g>
      <g>
        <path class="cls-1" d="M84.89,17.95v26.16h-7.85v-2.46c-1.73,1.99-4.29,3.19-7.8,3.19-6.85,0-12.5-6.02-12.5-13.81s5.65-13.81,12.5-13.81c3.51,0,6.07,1.2,7.8,3.19v-2.46h7.85Zm-7.85,13.08c0-3.92-2.62-6.38-6.23-6.38s-6.23,2.46-6.23,6.38,2.62,6.38,6.23,6.38,6.23-2.46,6.23-6.38Z"/>
        <path class="cls-1" d="M91.36,5.92h7.85V44.11h-7.85V5.92Z"/>
        <path class="cls-1" d="M130.91,17.95l-9.68,26.16h-8.89l-9.68-26.16h8.69l5.44,16.59,5.44-16.59h8.69Z"/>
        <path class="cls-2" d="M132.01,31.03c0-7.8,5.91-13.81,13.86-13.81,5.07,0,9.57,2.67,11.82,6.7l-6.85,3.98c-.89-1.83-2.77-2.93-5.07-2.93-3.4,0-5.91,2.46-5.91,6.07s2.51,6.07,5.91,6.07c2.3,0,4.24-1.1,5.07-2.93l6.85,3.92c-2.25,4.08-6.7,6.75-11.82,6.75-7.95,0-13.86-6.02-13.86-13.81Z"/>
        <path class="cls-2" d="M160.11,31.03c0-7.8,6.17-13.81,13.86-13.81s13.86,6.02,13.86,13.81-6.17,13.81-13.86,13.81-13.86-6.02-13.86-13.81Zm19.88,0c0-3.71-2.62-6.17-6.02-6.17s-6.02,2.46-6.02,6.17,2.62,6.17,6.02,6.17,6.02-2.46,6.02-6.17Z"/>
        <path class="cls-2" d="M232.12,28.05v16.06h-7.85v-15.38c0-2.62-1.26-4.29-3.77-4.29s-4.08,1.83-4.08,4.92v14.75h-7.85v-15.38c0-2.62-1.26-4.29-3.77-4.29s-4.08,1.83-4.08,4.92v14.75h-7.85V17.95h7.85v2.41c1.2-1.78,3.51-3.14,7.01-3.14,3.09,0,5.39,1.26,6.85,3.45,1.47-2.09,3.87-3.45,7.59-3.45,6.02,0,9.94,4.29,9.94,10.83Z"/>
      </g>
      <g>
        <path class="cls-1" d="M45.63,45.99c2.64,0,4.38-2.74,3.27-5.12L30.83,2.08c-1.29-2.78-5.25-2.78-6.54,0L11.63,29.38c-.81,1.75,.47,3.75,2.4,3.75h5.32c.93,0,1.78-.54,2.18-1.39l4.29-9.23c.69-1.48,2.8-1.48,3.48,0l5.37,11.52c.53,1.13-.25,2.44-1.5,2.51l-.76,.04c-2.72,.15-5.43,.45-8.1,.98-2.13,.42-4.21,.94-6.23,1.6-5.01,1.63-9.75,4.01-13.66,8.08-1.56,1.63-2.8,3.55-3.74,5.6l-.57,1.24c-.36,.8,.22,1.7,1.09,1.7H9.38c.56,.01,1.08-.31,1.32-.82,.02-.05,.19-.32,.21-.35,1.2-1.72,2.76-3.06,4.58-4.09,4.25-2.43,8.94-3.37,13.72-3.95,3.8-.46,7.62-.62,11-.61,.77,0,1.52,0,2.24,.03h3.17Z"/>
        <path class="cls-1" d="M55.06,54.09l-1.98-4.37-11.12-.02,2.84,6.1h9.16c.87-.02,1.45-.92,1.09-1.71Z"/>
      </g>
      <g>
        <path class="cls-2" d="M132.34,54.69c0-2.23,1.71-3.91,4.01-3.91s4.01,1.66,4.01,3.91-1.72,3.91-4.01,3.91-4.01-1.67-4.01-3.91Zm7.44,0c0-1.95-1.47-3.39-3.43-3.39s-3.44,1.44-3.44,3.39,1.47,3.39,3.44,3.39,3.43-1.44,3.43-3.39Z"/>
        <path class="cls-2" d="M143.65,55.27v-4.43h.56v4.41c0,1.93,.92,2.83,2.53,2.83s2.52-.9,2.52-2.83v-4.41h.56v4.43c0,2.2-1.18,3.32-3.09,3.32s-3.08-1.12-3.08-3.32Z"/>
        <path class="cls-2" d="M155.18,51.34h-2.77v-.51h6.11v.51h-2.77v7.2h-.56v-7.2Z"/>
        <path class="cls-2" d="M160.39,57.55l.25-.42c.53,.55,1.51,.97,2.54,.97,1.54,0,2.22-.67,2.22-1.51,0-2.31-4.81-.92-4.81-3.76,0-1.09,.84-2.05,2.73-2.05,.85,0,1.73,.26,2.32,.69l-.21,.45c-.64-.44-1.42-.65-2.11-.65-1.5,0-2.17,.69-2.17,1.54,0,2.31,4.81,.95,4.81,3.74,0,1.09-.87,2.04-2.77,2.04-1.14,0-2.24-.43-2.81-1.05Z"/>
        <path class="cls-2" d="M168.56,54.69c0-2.23,1.71-3.91,4.01-3.91s4.01,1.66,4.01,3.91-1.72,3.91-4.01,3.91-4.01-1.67-4.01-3.91Zm7.44,0c0-1.95-1.47-3.39-3.43-3.39s-3.44,1.44-3.44,3.39,1.47,3.39,3.44,3.39,3.43-1.44,3.43-3.39Z"/>
        <path class="cls-2" d="M179.87,55.27v-4.43h.56v4.41c0,1.93,.92,2.83,2.53,2.83s2.52-.9,2.52-2.83v-4.41h.56v4.43c0,2.2-1.18,3.32-3.09,3.32s-3.08-1.12-3.08-3.32Z"/>
        <path class="cls-2" d="M195.42,58.54l-1.84-2.57c-.24,.03-.48,.05-.75,.05h-2.2v2.52h-.56v-7.7h2.76c1.94,0,3.1,.97,3.1,2.6,0,1.22-.66,2.07-1.8,2.41l1.93,2.7h-.64Zm-2.59-3.02c1.65,0,2.53-.77,2.53-2.09s-.88-2.09-2.53-2.09h-2.2v4.18h2.2Z"/>
        <path class="cls-2" d="M198.68,54.69c0-2.24,1.71-3.91,3.99-3.91,1.09,0,2.07,.35,2.74,1.07l-.35,.36c-.66-.65-1.46-.91-2.37-.91-1.97,0-3.46,1.45-3.46,3.39s1.49,3.39,3.46,3.39c.9,0,1.71-.28,2.37-.92l.35,.36c-.67,.72-1.65,1.08-2.74,1.08-2.29,0-3.99-1.66-3.99-3.91Z"/>
        <path class="cls-2" d="M208.71,50.84h.56v7.7h-.56v-7.7Z"/>
        <path class="cls-2" d="M219.64,50.84v7.7h-.46l-5.25-6.69v6.69h-.56v-7.7h.47l5.24,6.69v-6.69h.56Z"/>
        <path class="cls-2" d="M229.25,54.72h.54v2.88c-.69,.66-1.69,.99-2.75,.99-2.32,0-4.03-1.66-4.03-3.91s1.71-3.91,4.04-3.91c1.11,0,2.09,.35,2.77,1.06l-.35,.37c-.67-.66-1.47-.91-2.41-.91-2,0-3.49,1.45-3.49,3.39s1.49,3.39,3.49,3.39c.81,0,1.56-.2,2.19-.7v-2.65Z"/>
      </g>
    </g>
  </g>
</svg>